<?xml version="1.0" encoding="UTF-8"?>
<!DOCTYPE svg PUBLIC "-//W3C//DTD SVG 1.1//EN" "http://www.w3.org/Graphics/SVG/1.1/DTD/svg11.dtd">
<svg xmlns="http://www.w3.org/2000/svg" version="1.1" width="512px" height="512px" style="shape-rendering:geometricPrecision; text-rendering:geometricPrecision; image-rendering:optimizeQuality; fill-rule:evenodd; clip-rule:evenodd" xmlns:xlink="http://www.w3.org/1999/xlink">
<g><path style="opacity:0.975" fill="#000000" d="M -0.5,120.5 C -0.5,113.833 -0.5,107.167 -0.5,100.5C 8.06315,73.8701 26.3965,61.7035 54.5,64C 79.5097,69.6659 92.8431,85.3326 94.5,111C 93.5647,130.564 84.5647,144.897 67.5,154C 41.5604,163.574 20.7271,157.074 5,134.5C 2.84209,129.841 1.00876,125.175 -0.5,120.5 Z"/></g>
<g><path style="opacity:0.989" fill="#000000" d="M 511.5,100.5 C 511.5,107.167 511.5,113.833 511.5,120.5C 505.822,141.008 492.488,153.508 471.5,158C 370.5,158.667 269.5,158.667 168.5,158C 142.773,152.891 129.106,137.225 127.5,111C 128.845,85.6557 141.845,69.9891 166.5,64C 268.5,63.3333 370.5,63.3333 472.5,64C 492.786,68.4616 505.786,80.6282 511.5,100.5 Z"/></g>
<g><path style="opacity:0.975" fill="#000000" d="M -0.5,265.5 C -0.5,258.833 -0.5,252.167 -0.5,245.5C 11.034,213.137 33.3673,201.97 66.5,212C 91.1148,225.829 99.2814,246.329 91,273.5C 77.7558,299.03 57.2558,307.863 29.5,300C 13.5764,293.581 3.5764,282.081 -0.5,265.5 Z"/></g>
<g><path style="opacity:0.981" fill="#000000" d="M 511.5,245.5 C 511.5,252.167 511.5,258.833 511.5,265.5C 505.179,288.314 490.179,300.814 466.5,303C 368.5,303.667 270.5,303.667 172.5,303C 150.233,300.736 135.733,288.903 129,267.5C 124.486,240.022 134.986,220.856 160.5,210C 164.442,209.007 168.442,208.34 172.5,208C 270.5,207.333 368.5,207.333 466.5,208C 490.179,210.186 505.179,222.686 511.5,245.5 Z"/></g>
<g><path style="opacity:0.975" fill="#000000" d="M -0.5,410.5 C -0.5,403.833 -0.5,397.167 -0.5,390.5C 7.56613,363.949 25.5661,351.449 53.5,353C 71.3033,356.141 83.8033,365.974 91,382.5C 98.4608,406.784 91.9608,426.284 71.5,441C 47.065,452.846 25.8983,448.679 8,428.5C 4.31011,422.792 1.47678,416.792 -0.5,410.5 Z"/></g>
<g><path style="opacity:0.989" fill="#000000" d="M 511.5,390.5 C 511.5,397.167 511.5,403.833 511.5,410.5C 505.786,430.372 492.786,442.538 472.5,447C 370.5,447.667 268.5,447.667 166.5,447C 141.845,441.011 128.845,425.344 127.5,400C 129.106,373.775 142.773,358.109 168.5,353C 269.5,352.333 370.5,352.333 471.5,353C 492.488,357.492 505.822,369.992 511.5,390.5 Z"/></g>
</svg>
